<svg width="800" height="600" xmlns="http://www.w3.org/2000/svg">
  <!-- Background -->
  <rect width="100%" height="100%" fill="#121212"/>
  
  <!-- Browser Window -->
  <rect x="20" y="20" width="760" height="560" rx="10" fill="#1e1e1e" stroke="#333" stroke-width="2"/>
  <rect x="20" y="20" width="760" height="40" rx="10" fill="#2d2d2d"/>
  <rect x="20" y="50" width="760" height="10" fill="#1e1e1e"/> 
  <circle cx="50" cy="40" r="6" fill="#ff5f56"/>
  <circle cx="70" cy="40" r="6" fill="#ffbd2e"/>
  <circle cx="90" cy="40" r="6" fill="#27c93f"/>
  
  <!-- Sidebar -->
  <rect x="20" y="60" width="60" height="520" fill="#252526"/>
  <rect x="35" y="80" width="30" height="30" rx="4" fill="#007acc"/>
  <rect x="35" y="130" width="30" height="30" rx="4" fill="#444"/>
  <rect x="35" y="180" width="30" height="30" rx="4" fill="#444"/>
  
  <!-- Code Area -->
  <rect x="80" y="60" width="700" height="520" fill="#1e1e1e"/>
  
  <!-- Code Lines -->
  <text x="100" y="100" font-family="Consolas, monospace" font-size="16" fill="#569cd6">const</text>
  <text x="155" y="100" font-family="Consolas, monospace" font-size="16" fill="#4fc1ff">portfolio</text>
  <text x="240" y="100" font-family="Consolas, monospace" font-size="16" fill="#d4d4d4">=</text>
  <text x="260" y="100" font-family="Consolas, monospace" font-size="16" fill="#ce9178">"My Work"</text>;
  
  <text x="100" y="130" font-family="Consolas, monospace" font-size="16" fill="#569cd6">function</text>
  <text x="180" y="130" font-family="Consolas, monospace" font-size="16" fill="#dcdcaa">createMagic</text>
  <text x="280" y="130" font-family="Consolas, monospace" font-size="16" fill="#ffd700">()</text>
  <text x="305" y="130" font-family="Consolas, monospace" font-size="16" fill="#d4d4d4">{</text>
  
  <rect x="120" y="150" width="200" height="10" rx="2" fill="#6a9955"/>
  <rect x="120" y="170" width="300" height="10" rx="2" fill="#6a9955"/>
  
  <text x="120" y="200" font-family="Consolas, monospace" font-size="16" fill="#c586c0">return</text>
  <text x="180" y="200" font-family="Consolas, monospace" font-size="16" fill="#ce9178">"Awesome Website"</text>;
  
  <text x="100" y="230" font-family="Consolas, monospace" font-size="16" fill="#d4d4d4">}</text>
  
  <!-- Preview Window Overlay -->
  <rect x="400" y="250" width="350" height="300" rx="8" fill="#252526" stroke="#444" stroke-width="2"/>
  <rect x="400" y="250" width="350" height="30" rx="8" fill="#333"/>
  <rect x="400" y="270" width="350" height="10" fill="#252526"/>
  <text x="530" y="270" font-family="Arial" font-size="12" fill="#ccc">Preview</text>
  
  <circle cx="575" cy="350" r="40" fill="#007acc"/>
  <rect x="450" y="410" width="250" height="10" rx="2" fill="#555"/>
  <rect x="450" y="430" width="200" height="10" rx="2" fill="#555"/>
  <rect x="450" y="450" width="150" height="10" rx="2" fill="#555"/>
  
</svg>
